<?xml version="1.0" encoding="utf-8"?>
<!-- Generator: Adobe Illustrator 16.0.4, SVG Export Plug-In . SVG Version: 6.00 Build 0)  -->
<!DOCTYPE svg PUBLIC "-//W3C//DTD SVG 1.1//EN" "http://www.w3.org/Graphics/SVG/1.1/DTD/svg11.dtd">
<svg version="1.1" id="Layer_1" xmlns="http://www.w3.org/2000/svg" xmlns:xlink="http://www.w3.org/1999/xlink" x="0px" y="0px"
	 width="694px" height="694px" viewBox="0 0 694 694" enable-background="new 0 0 694 694" xml:space="preserve">
<g transform="translate(0.000000,694.000000) scale(0.100000,-0.100000)">
	<path d="M4330,5226c0-2.002,7.998-10,17.998-17.002c15-12.998,16.006-11.997,2.998,3.999
		C4337.998,5228.999,4330,5233.999,4330,5226z"/>
	<path d="M2568.999,5142.998c-12.998-15.996-11.997-16.997,3.999-3.999c9.004,7.002,17.002,15,17.002,17.002
		C2590,5163.999,2582.002,5158.999,2568.999,5142.998z"/>
	<path d="M4450,5071c0-6.001,4.004-13.003,10-16.001s7.002,1.001,4.004,8.999C4457.001,5082.001,4450,5085,4450,5071z"/>
	<path d="M4480,5031c0-6.001,4.004-13.003,10-16.001s7.002,1.001,4.004,8.999C4487.001,5042.001,4480,5045,4480,5031z"/>
	<path d="M4452.001,4990c0-13.999,2.002-18.999,5-12.002c2.002,6.001,2.002,18.003,0,25
		C4454.003,5008.999,4452.001,5003.999,4452.001,4990z"/>
	<path d="M4472.998,4987.001c-2.998-6.001-0.996-7.002,5-3.003c16.006,10,15-6.001,0-23.999c-10.996-12.002-10-12.002,5-1.001
		c10,8.003,17.002,8.999,17.002,3.003c0-6.001,7.998-18.003,17.002-28.003c12.998-12.998,13.994-18.999,5-21.997
		c-6.006-2.002-12.002-8.003-12.002-13.003c0-6.001,5-6.997,12.002-2.998s7.998,2.998,3.994-5
		c-3.994-6.001-11.992-8.999-16.992-6.001c-5,3.999-9.004-2.998-9.004-15c0-17.998-5-20-40.996-15c-40,5-41.006,3.999-35-20
		c5-20,2.998-25-13.008-25c-10.996,0-27.998-11.001-38.994-25c-11.006-12.998-22.002-21.001-26.006-17.998
		c-2.998,2.998-5.996,1.997-5.996-4.004c0-10-9.004-13.999-65-31.997c-10.996-3.999-20-13.003-20-21.001s-10.996-17.002-25-17.998
		c-14.004-2.002-34.004-12.002-45-22.002s-35-21.001-52.998-25s-39.004-12.998-47.002-22.002c-7.998-7.998-30-15-49.004-15.996
		c-18.994-1.001-33.994-6.001-32.998-10C4005,4586,3940,4550,3917.998,4550c-8.994,0-20-3.999-22.998-10
		c-2.998-5-19.004-10-35.996-10c-18.008,0-29.004-5-29.004-13.999c0-8.999-20.996-15-70.996-18.999
		c-39.004-3.003-77.002-11.001-85-18.003c-8.008-6.997-47.002-16.001-87.002-21.001c-40-3.999-95-10.996-124.004-13.999
		c-55.996-6.997-107.002,1.001-97.998,15c2.998,5-7.002,7.002-22.002,3.999c-75-12.998-115.996-13.999-125.996-3.999
		c-16.006,16.001-27.002,13.999-21.006-3.999c5-12.002,0-12.002-27.998-3.999c-17.998,6.001-50.996,15-72.998,18.999
		c-62.002,12.998-78.999,21.001-63.999,31.001c21.997,12.998,6.997,17.998-81.001,23.999c-46.001,2.998-87.002,10-90,15
		c-7.998,12.998-93.999,40-145,47.002c-22.002,1.997-42.998,8.999-46.001,15c-3.999,5.996-13.999,7.998-22.998,5
		c-10-4.004-23.003,0.996-33.003,12.998c-10,11.001-23.999,20-32.998,20c-12.002,0-12.002,2.002-2.002,8.999
		c10,6.001,9.004,10-6.997,13.999c-13.999,3.003-21.001,0-21.001-8.999c0-7.998-12.002-20-26.001-26.001
		c-22.998-10.996-28.999-10-43.999,10C2470,4650,2457.002,4660,2452.002,4660s-12.002,7.998-15,17.998
		c-2.002,11.001-14.004,21.001-26.001,25c-17.002,4.004-21.001,1.001-21.001-15.996c0-17.002-2.002-19.004-8.999-7.002
		c-6.001,7.998-7.002,17.998-3.999,23.999c2.998,5,0.996,6.001-5,2.002c-17.002-10-15,6.001,5,33.999
		c11.997,17.002,13.999,25,3.999,27.998c-8.003,3.003-8.999,8.003-1.001,17.002c6.001,7.002,12.998,22.998,15,36.001
		c2.998,11.997,10,26.001,17.002,31.001c10.996,5.996,10.996,7.998,0,7.998c-15,0-40-56.001-70-156.001
		c-92.002-302.998-63.003-590,90-886.997c268.999-524.004,850.996-767.002,1410.996-590c302.998,95,550,296.997,700,572.998
		c50,91.001,104.004,260,122.998,382.002c18.008,117.998,13.008,303.999-10.996,426.997c-20,101.001-55.996,212.002-65.996,205
		c-5-2.998-6.006,1.001-3.008,8.999c8.008,21.001-63.994,160-77.998,151.001c-7.002-5-8.994-1.997-5.996,8.003
		C4509.003,4997.998,4482.998,5002.998,4472.998,4987.001z M4540.996,4862.998c-7.998-15-10-15-10.996-1.997
		c0,16.997,10,31.997,17.998,25C4550,4882.998,4547.001,4872.998,4540.996,4862.998z M2360,4650c0-5-2.002-10-3.999-10
		c-3.003,0-8.003,5-11.001,10c-2.998,6.001-1.001,10,3.999,10C2355,4660,2360,4656,2360,4650z M2970,4498.999
		c12.998-6.997,12.998-7.998,0-8.999c-27.002,0-60,12.002-60,22.002C2910,4521,2942.998,4515,2970,4498.999z"/>
	<path d="M2446.001,4957.998L2427.998,4925l21.001,25c18.003,22.002,26.001,40,18.003,40
		C2466.001,4990,2456.001,4975,2446.001,4957.998z"/>
	<path d="M4487.001,4920c2.998-11.001,7.002-20,8.994-20c2.002,0,4.004,8.999,4.004,20s-4.004,20-9.004,20
		S4484.003,4931,4487.001,4920z"/>
	<path d="M2405,4880c-2.998-5-1.001-10,3.999-10c6.001,0,11.001,5,11.001,10c0,6.001-2.002,10-3.999,10
		C2412.998,4890,2407.998,4886,2405,4880z"/>
	<path d="M605,4840c-3.999-6.001,6.001-7.998,25-6.001c42.002,5,51.001,16.001,12.002,16.001C625,4850,607.998,4846,605,4840z"/>
	<path d="M518.999,4811C475,4782.001,420,4728.999,420,4713.999c0-3.999,7.998,0,17.998,8.999c10,10,22.002,14.004,25,10
		c4.004-2.998,7.002,1.001,7.002,10c0,21.001,32.998,52.002,83.999,77.002c23.003,11.001,33.999,20,25,20
		C571.001,4840,543.999,4827.001,518.999,4811z"/>
	<path d="M687.998,4832.998c6.001-1.997,18.003-1.997,25,0c6.001,3.003,1.001,5-12.998,5S681.001,4836,687.998,4832.998z"/>
	<path d="M796.001,4796c1.997-6.001,12.998-12.002,23.999-12.002c22.998,0,17.002,12.002-8.999,18.999
		C798.999,4806,792.998,4802.998,796.001,4796z"/>
	<path d="M6197.998,4772.998c6.006-1.997,17.998-1.997,25,0c6.006,3.003,1.006,5-12.998,5S6190.996,4776,6197.998,4772.998z"/>
	<path d="M870,4760c0-6.001,7.002-10,16.001-10s11.997-5,7.998-12.002c-3.999-5.996-2.998-7.998,3.003-5
		c5,4.004,18.999-1.997,30-12.998c11.997-10,23.999-16.001,28.999-12.002c3.999,4.004,5,0,1.997-8.999
		c-3.999-8.999-1.997-21.997,4.004-30c7.998-11.001,8.999-11.001,5,3.003c-4.004,11.997,0,15.996,11.997,15
		C991.001,4686,996.001,4681,992.002,4671c-4.004-10-1.001-13.003,10.996-8.003c9.004,3.003,19.004,2.002,22.002-3.999
		c3.999-5,11.001-6.997,16.001-3.999c5,3.999,8.999,0,8.999-7.998c0-17.002-27.998-43.003-37.002-33.003
		c-2.998,3.003,0,6.001,8.003,6.001c11.001,0,11.001,2.002-1.001,10c-11.001,7.002-11.001,10-2.002,10c7.002,0,10,5,7.002,10
		c-8.999,15-27.002,0-21.001-17.002c3.999-10,1.001-12.998-12.998-7.998C980,4627.998,968.999,4626,965,4621
		c-2.998-6.001,0-8.999,7.002-6.001c17.998,7.002,47.998-15,30.996-22.002C996.001,4591,990,4581,990,4572.998
		c0-10-6.001-12.998-16.001-8.999C956.001,4571,923.999,4545,940,4535c5-2.998,15-2.998,22.002,1.001
		c10.996,6.997-6.001-18.003-45-68.002c-8.003-10-20-17.998-28.003-17.998c-22.998,0-78.999-38.999-78.999-55
		c0-7.998-5-15-11.001-15c-6.997,0-8.999,12.002-5,33.999c5,26.001,3.003,35-10,40c-21.997,8.999-23.999,8.003-17.998-7.998
		c2.998-8.003-6.001-18.003-25-25C725,4413.999,710,4400,707.002,4388.999c-3.003-11.997-14.004-18.999-30-18.999
		c-14.004,0-29.004-3.999-32.002-10c-6.001-8.999,37.998-15,90-11.001l20,2.002l-20-12.002
		c-11.001-6.997-27.998-21.001-38.999-31.001c-13.003-15-27.002-17.998-47.002-13.999C632.998,4297.002,620,4295,620,4291.001
		c0-5-2.998-17.002-7.002-27.002c-5-12.998-2.998-15,7.002-8.999c8.999,5,11.001,3.999,6.001-3.999
		c-3.999-6.001-13.003-8.003-18.999-3.999c-7.002,3.999-20,5.996-29.004,5C567.998,4250,560,4253.999,560,4260
		c0,7.002,6.001,10,12.998,7.002c8.003-3.003,20-1.001,28.003,5c11.001,7.998,11.001,8.999-2.002,5
		c-12.998-4.004-15-1.001-11.997,13.999c2.998,10,8.999,18.999,13.999,18.999s8.999,5,8.999,11.001
		c0,6.997-7.002,7.998-17.002,3.999s-30.996-7.998-45.996-10c-24.004-3.999-27.002-2.002-17.002,10
		c8.999,11.001,7.002,12.002-10,7.998c-20-5-20-5.996,6.001-51.997c15-25,31.997-51.001,37.998-56.001
		c6.001-6.001,12.002-15,13.003-21.001c3.999-21.001,165-256.997,280-411.001c125-167.998,280-355,422.998-507.998
		c51.001-55,158.999-179.004,240-275s185-215.996,231.001-265c305-327.002,396.997-452.998,482.998-657.002l28.003-65.996
		l-11.001-174.004C2245,1752.998,2235,1612.002,2230,1535c-6.001-77.002-15-200.996-20-275s-16.001-229.004-23.999-345
		c-8.003-115.996-20-289.004-26.001-385s-15-230-21.001-297.998c-5-67.998-8.999-147.998-8.999-177.998V0h1340.996h1340l-5,77.998
		C4802.001,120,4795,225,4790,310c-5.996,85-22.998,352.998-40,595c-35,524.004-54.004,977.998-47.998,1130
		c5.996,132.998,27.002,194.004,103.994,304.004c29.004,41.992,82.002,120,119.004,172.998c85,125,187.998,242.998,345.996,397.998
		c70,69.004,142.002,142.998,159.004,165c32.002,42.002,242.002,277.002,415,467.002
		c170.996,186.997,332.998,396.997,317.998,411.997c-2.998,3.003-0.996,6.001,4.004,6.001c12.002,0,195,297.998,218.994,355
		c16.006,37.998,0,42.998-31.992,8.999c-17.002-17.998-19.004-23.999-8.008-27.998c8.008-3.003,14.004-11.001,14.004-18.003
		c0-8.999-2.998-8.999-10,2.002c-9.004,12.998-12.998,11.001-30-10c-17.998-22.998-20-23.999-35-8.999s-15,16.997,0,22.998
		c12.998,3.999,15.996,2.002,10.996-8.999c-7.998-22.002,7.002-17.998,22.002,5c7.002,11.001,7.998,20,2.002,20
		c-5,0-7.002,7.002-2.998,17.002c5,12.998,2.002,15-15,10.996c-12.002-3.999-20-2.998-17.002,2.002
		c5.996,10-20,32.002-27.998,22.998c-4.004-2.998-7.002-1.997-7.002,4.004c0,5-22.998,10-52.002,11.997
		c-27.998,1.001-55,3.999-57.998,6.001c-4.004,2.002-12.998,22.998-20,46.001c-7.998,23.999-22.002,43.999-32.002,46.997
		c-10,2.002-17.998,11.001-17.998,19.004c0,7.998-9.004,16.997-20.996,20c-11.006,2.998-18.008,10.996-16.006,16.997
		c7.002,18.003-17.998,58.999-37.002,62.002c-12.998,1.997-13.994-2.002-5-17.002c9.004-17.998,8.008-18.999-8.994-7.998
		c-11.006,6.997-27.998,26.001-37.002,41.997c-10,17.002-12.998,27.002-7.998,24.004c5.996-4.004,15.996,5,22.998,17.998
		c7.002,13.999,20.996,25,30.996,25c13.008,0,17.002,5,13.008,17.998c-3.008,9.004,1.992,6.001,10-7.998l15.996-25l-4.004,27.998
		c-2.998,15,0,27.002,5,27.002s9.004-5,9.004-11.001c0-5,5-6.997,10-3.999c5.996,3.999,7.002,11.001,4.004,17.002
		c-5,7.998-1.006,8.999,10,5c8.994-4.004,15-3.003,11.992,1.997c-5.996,10,42.002,33.003,54.004,26.001c5-2.998,12.002-1.001,15,5
		c4.004,6.001,15.996,7.998,27.002,3.999c13.994-3.999,17.998-1.997,13.994,5c-8.994,13.999-45.996,15-45.996,1.001
		c0-5-5.996-7.002-12.002-5c-32.002,12.002-435-216.001-420.996-237.002c2.998-6.997,0.996-7.998-5-3.999
		c-14.004,8.002-137.998-81.997-422.002-307.998c-369.004-293.003-624.004-513.999-922.998-800.005
		c-240-230-357.002-301.992-586.006-363.994c-85-22.002-116.992-25-275.996-26.006c-137.998-0.996-199.004,3.008-262.002,17.002
		c-162.002,35-322.998,100-452.998,185c-30,20-185,165-345,322.002c-187.998,185-337.002,322.002-423.999,390
		c-73.999,57.998-247.002,197.002-385,308.999c-302.002,245-451.001,355-467.002,345c-6.997-3.999-8.999-2.998-5,3.999
		c8.003,14.004-43.999,51.001-63.999,44.004c-7.998-3.003-12.002-1.001-7.002,2.998c8.003,10-105.996,85-127.998,85
		c-7.998,0-15,5-15,11.001c0,5-3.999,6.997-10,3.999c-5-2.998-10-2.002-10,2.998s-11.001,14.004-25,20C880,4765,870,4766,870,4760z
		 M1062.002,4586c-5-18.999-6.001-18.999-13.003,0c-6.997,17.998-7.998,17.998-7.998,0c-1.001-11.001-3.999-17.002-7.002-13.003
		c-10,10,3.003,34.004,18.999,34.004C1062.002,4607.001,1065,4600,1062.002,4586z M5910,4606c0-2.002-7.002-7.002-15.996-10
		c-8.008-3.003-12.002-2.002-9.004,3.999C5890.996,4610,5910,4613.999,5910,4606z M836.001,4382.998c-10-10-18.999,5-10,18.003
		c6.001,11.001,7.998,11.001,11.997,0C840,4393.999,838.999,4386.001,836.001,4382.998z M6262.998,4337.002
		c4.004,2.998,7.002,0.996,7.002-5c0-7.002-10.996-12.002-25-12.002c-17.998,0-22.998,3.999-19.004,15c5,11.001,10,12.998,19.004,5
		C6250.996,4335,6260,4332.998,6262.998,4337.002z M6370.996,4307.002c-10-9.004-10.996-8.003-5,5.996
		c3.008,10,9.004,15,12.002,12.002S6377.998,4313.999,6370.996,4307.002z M562.998,4297.002c3.003-8.003,0-14.004-6.997-14.004
		c-7.002,0-13.003,6.001-13.003,14.004c0,6.997,4.004,12.998,8.003,12.998S560,4303.999,562.998,4297.002z M600,4222.002
		c0-12.002-2.998-12.002-17.002-1.001c-10,6.997-20,13.999-21.997,16.001c-2.002,0.996,6.001,0.996,17.998,0
		C590,4236.001,600,4228.999,600,4222.002z"/>
	<path d="M6300,4756c0-2.002,7.002-7.002,15.996-10c8.008-3.003,12.002-2.002,9.004,3.999C6319.003,4760,6300,4763.999,6300,4756z"
		/>
	<path d="M6344.003,4722.001c3.994-3.003,13.994-7.002,21.992-8.003c9.004-1.001,13.008,0,10,3.999
		c-3.994,3.003-13.994,7.002-21.992,8.003C6345,4727.001,6340.996,4726,6344.003,4722.001z"/>
	<path d="M890,4711c0-6.001,3.999-13.003,10-16.001s7.002,1.001,3.999,8.999C897.002,4722.001,890,4725,890,4711z"/>
	<path d="M400,4673.999c-12.998-31.997-12.002-36.997,0-28.999c6.001,2.998,10,15,10,25s6.001,21.001,12.998,22.998
		c9.004,4.004,9.004,6.001-0.996,6.001C415,4700,405,4687.998,400,4673.999z"/>
	<path d="M5970,4645c-7.002-7.998-9.004-15-4.004-15s2.002-5-5.996-10c-12.002-7.002-10-8.999,5.996-7.998
		c16.006,1.997,21.006,7.998,20,25C5985,4663.999,5985.996,4663.999,5970,4645z"/>
	<path d="M6005.996,4623.999c-2.998-8.999-3.994-18.999-0.996-21.997c2.998-3.003,5,0.996,5,8.999c0,11.001,2.002,11.001,10-1.001
		c5-7.998,10-10,10-5c0,6.001-4.004,16.001-9.004,22.998C6015,4638.999,6010.996,4637.998,6005.996,4623.999z"/>
	<path d="M391.001,4613.999c0-11.001,2.998-13.999,6.001-6.001c2.998,7.002,1.997,16.001-1.001,19.004
		C392.998,4631,390,4625,391.001,4613.999z"/>
	<path d="M2845,4590c-2.998-5-1.001-10,3.999-10c6.001,0,11.001,5,11.001,10c0,6.001-2.002,10-3.999,10
		C2852.998,4600,2847.998,4596,2845,4590z"/>
	<path d="M391.001,4560c0-7.998,6.001-27.998,13.999-45c17.002-38.999,17.998-21,0,25
		C397.998,4558.999,391.001,4567.998,391.001,4560z"/>
	<path d="M3347.998,4497.998c9.004-8.999,15-8.999,24.004,0c8.994,9.004,7.002,12.002-12.002,12.002
		S3339.004,4507.002,3347.998,4497.998z"/>
	<path d="M3450,4500c0-5,15.996-10,35.996-10c21.006,0,33.008,3.999,29.004,10c-2.998,6.001-19.004,10-35.996,10
		C3462.998,4510,3450,4506.001,3450,4500z"/>
	<path d="M420,4477.002c0-14.004,31.001-69.004,36.001-64.004c2.998,3.003-3.999,20-15,38.003
		C428.999,4470,420,4481.001,420,4477.002z"/>
	<path d="M6440.996,4437.002c-12.998-21.001-11.992-21.001,5-5c10,10,16.006,20,13.008,21.997
		C6455.996,4457.002,6447.998,4448.999,6440.996,4437.002z"/>
	<path d="M478.999,4422.998c-1.001-5-1.001-10.996,0-15c0-5-3.999-7.998-8.999-7.998c-6.001,0-3.999-12.998,5-30
		c8.999-16.001,17.998-30,21.001-30c2.998,0,1.997,5-2.002,12.002c-5,7.998-1.997,8.999,8.999,5
		c9.004-3.003,19.004-2.002,22.002,3.999c3.999,5,2.998,8.999-2.002,7.998c-3.999-1.001-15.996-1.001-26.997,0
		c-15,1.001-16.001,3.999-7.002,15c8.003,10,8.999,16.001,1.001,21.001c-6.001,2.998-7.998,11.001-5,16.001
		c3.999,5,3.999,8.999,1.001,8.999C482.998,4430,478.999,4427.002,478.999,4422.998z"/>
	<path d="M6170,4410c0-5,5-10,10.996-10c5,0,7.002,5,4.004,10c-2.998,6.001-7.998,10-10.996,10
		C6172.001,4420,6170,4416.001,6170,4410z"/>
	<path d="M6417.001,4408.999c7.002-6.997,15-10,17.998-6.997c2.998,2.998-2.002,8.999-12.002,11.997
		C6409.003,4420,6407.998,4418.999,6417.001,4408.999z"/>
	<path d="M6392.998,4372.998c0-6.997,6.006-12.998,12.998-12.998c6.006,0,14.004,6.001,17.002,12.998
		c2.998,7.002-2.998,13.003-12.002,13.003C6400.996,4386.001,6392.998,4380,6392.998,4372.998z"/>
</g>
<circle cx="348.976" cy="256.05" r="120.15"/>
<path d="M60.413,278.404c0,0-43.913-51.439-8.513-65.504c0,0,18.4-18.2,64,22.7"/>
<path d="M567.457,243.634c0,0,49.844-40.334,67.943-22.234c0,0,20.4,9.6,10.5,27.2c0,0-20.301,40.1-29.601,50"/>
</svg>
